<?xml version="1.0" encoding="UTF-8" standalone="no"?>
<!DOCTYPE svg PUBLIC "-//W3C//DTD SVG 1.1//EN"
 "http://www.w3.org/Graphics/SVG/1.1/DTD/svg11.dtd">
<!-- Generated by graphviz version 2.50.0 (0)
 -->
<!-- Title: finite_state_machine Pages: 1 -->
<svg width="1349pt" height="2430pt"
 viewBox="0.00 0.00 1349.00 2429.84" xmlns="http://www.w3.org/2000/svg" xmlns:xlink="http://www.w3.org/1999/xlink">
<g id="graph0" class="graph" transform="scale(1 1) rotate(0) translate(4 2425.84)">
<title>finite_state_machine</title>
<polygon fill="white" stroke="transparent" points="-4,4 -4,-2425.84 1345,-2425.84 1345,4 -4,4"/>
<!-- ENTRY -->
<g id="node1" class="node">
<title>ENTRY</title>
<ellipse fill="black" stroke="black" cx="667" cy="-2420.04" rx="1.8" ry="1.8"/>
</g>
<!-- normal -->
<g id="node3" class="node">
<title>normal</title>
<ellipse fill="none" stroke="black" cx="589" cy="-2313.29" rx="45.49" ry="45.49"/>
<text text-anchor="middle" x="589" y="-2309.59" font-family="Times,serif" font-size="14.00">Normal</text>
</g>
<!-- ENTRY&#45;&gt;normal -->
<g id="edge6" class="edge">
<title>ENTRY&#45;&gt;normal</title>
<path fill="none" stroke="black" d="M665.02,-2419.16C656.1,-2419.58 619.34,-2420.02 602,-2400.24 594.38,-2391.55 590.16,-2380.37 587.98,-2368.96"/>
<polygon fill="black" stroke="black" points="591.43,-2368.35 586.56,-2358.94 584.5,-2369.33 591.43,-2368.35"/>
<text text-anchor="middle" x="660.5" y="-2389.04" font-family="Times,serif" font-size="14.00">in live operation</text>
</g>
<!-- firstboot -->
<g id="node4" class="node">
<title>firstboot</title>
<ellipse fill="none" stroke="black" cx="746" cy="-2313.29" rx="53.89" ry="53.89"/>
<text text-anchor="middle" x="746" y="-2309.59" font-family="Times,serif" font-size="14.00">Firstboot</text>
</g>
<!-- ENTRY&#45;&gt;firstboot -->
<g id="edge1" class="edge">
<title>ENTRY&#45;&gt;firstboot</title>
<path fill="none" stroke="black" d="M668.54,-2418.96C675.47,-2418.51 704.12,-2415.76 719,-2400.24 725.44,-2393.52 730.34,-2385.28 734.08,-2376.6"/>
<polygon fill="black" stroke="black" points="737.42,-2377.64 737.69,-2367.05 730.88,-2375.16 737.42,-2377.64"/>
<text text-anchor="middle" x="847.5" y="-2389.04" font-family="Times,serif" font-size="14.00">applying firstboot machineconfig</text>
</g>
<!-- EXIT -->
<g id="node2" class="node">
<title>EXIT</title>
<ellipse fill="black" stroke="black" cx="1036" cy="-1.8" rx="1.8" ry="1.8"/>
</g>
<!-- cleanup -->
<g id="node13" class="node">
<title>cleanup</title>
<ellipse fill="none" stroke="black" cx="572" cy="-2063.41" rx="144.87" ry="144.87"/>
<text text-anchor="middle" x="572" y="-2059.71" font-family="Times,serif" font-size="14.00">Cleaning up after OS/Rebase</text>
</g>
<!-- normal&#45;&gt;cleanup -->
<g id="edge7" class="edge">
<title>normal&#45;&gt;cleanup</title>
<path fill="none" stroke="black" d="M577.68,-2269.02C575.75,-2259.94 574.03,-2250.38 573,-2241.35 572.15,-2233.92 571.46,-2226.3 570.89,-2218.61"/>
<polygon fill="black" stroke="black" points="574.37,-2218.19 570.22,-2208.44 567.39,-2218.65 574.37,-2218.19"/>
<text text-anchor="middle" x="648.5" y="-2230.15" font-family="Times,serif" font-size="14.00">cleanup on first start</text>
</g>
<!-- firstboot&#45;&gt;firstboot -->
<g id="edge2" class="edge">
<title>firstboot&#45;&gt;firstboot</title>
<path fill="none" stroke="black" d="M798.06,-2327.52C809.57,-2326.18 817.95,-2321.44 817.95,-2313.29 817.95,-2307.81 814.16,-2303.88 808.19,-2301.48"/>
<polygon fill="black" stroke="black" points="808.6,-2297.98 798.06,-2299.06 806.98,-2304.78 808.6,-2297.98"/>
<text text-anchor="middle" x="913.95" y="-2309.59" font-family="Times,serif" font-size="14.00">failed, retrying after 1 min</text>
</g>
<!-- osupdateinplace -->
<g id="node12" class="node">
<title>osupdateinplace</title>
<ellipse fill="none" stroke="black" cx="874" cy="-2063.41" rx="95.58" ry="95.58"/>
<text text-anchor="middle" x="874" y="-2059.71" font-family="Times,serif" font-size="14.00">In&#45;place os update</text>
</g>
<!-- firstboot&#45;&gt;osupdateinplace -->
<g id="edge3" class="edge">
<title>firstboot&#45;&gt;osupdateinplace</title>
<path fill="none" stroke="black" d="M741.24,-2259.53C741.7,-2248.34 743.33,-2236.76 747,-2226.35 758.18,-2194.58 778.34,-2164.25 799.35,-2138.61"/>
<polygon fill="black" stroke="black" points="802.15,-2140.72 805.89,-2130.81 796.79,-2136.23 802.15,-2140.72"/>
<text text-anchor="middle" x="822" y="-2230.15" font-family="Times,serif" font-size="14.00">boot image is too old</text>
</g>
<!-- degraded -->
<g id="node5" class="node">
<title>degraded</title>
<ellipse fill="none" stroke="black" cx="724" cy="-1811.58" rx="55.79" ry="55.79"/>
<text text-anchor="middle" x="724" y="-1807.88" font-family="Times,serif" font-size="14.00">Degraded</text>
</g>
<!-- updating -->
<g id="node8" class="node">
<title>updating</title>
<ellipse fill="none" stroke="black" cx="529" cy="-1650.74" rx="53.89" ry="53.89"/>
<text text-anchor="middle" x="529" y="-1647.04" font-family="Times,serif" font-size="14.00">Updating</text>
</g>
<!-- degraded&#45;&gt;updating -->
<g id="edge29" class="edge">
<title>degraded&#45;&gt;updating</title>
<path fill="none" stroke="black" d="M680.22,-1776.77C664.59,-1764.57 646.92,-1750.62 631,-1737.68 613.55,-1723.5 594.66,-1707.71 577.94,-1693.57"/>
<polygon fill="black" stroke="black" points="579.81,-1690.57 569.92,-1686.78 575.29,-1695.91 579.81,-1690.57"/>
<text text-anchor="middle" x="681" y="-1726.48" font-family="Times,serif" font-size="14.00">requeue/retry</text>
</g>
<!-- validating -->
<g id="node6" class="node">
<title>validating</title>
<ellipse fill="none" stroke="black" cx="245" cy="-1421" rx="124.58" ry="124.58"/>
<text text-anchor="middle" x="245" y="-1417.3" font-family="Times,serif" font-size="14.00">Validating On&#45;Disk State</text>
</g>
<!-- validating&#45;&gt;degraded -->
<g id="edge11" class="edge">
<title>validating&#45;&gt;degraded</title>
<path fill="none" stroke="black" d="M254.55,-1545.55C257.28,-1557 260.71,-1568.24 265,-1578.79 291.43,-1643.71 302.3,-1664.89 360,-1704.68 451.52,-1767.79 580.74,-1793.72 658.06,-1804.06"/>
<polygon fill="black" stroke="black" points="657.79,-1807.55 668.16,-1805.36 658.69,-1800.61 657.79,-1807.55"/>
<text text-anchor="middle" x="413" y="-1647.04" font-family="Times,serif" font-size="14.00">validation fails</text>
</g>
<!-- waiting -->
<g id="node7" class="node">
<title>waiting</title>
<ellipse fill="none" stroke="black" cx="466" cy="-1193.87" rx="28.7" ry="28.7"/>
<text text-anchor="middle" x="466" y="-1190.17" font-family="Times,serif" font-size="14.00">Idle</text>
</g>
<!-- validating&#45;&gt;waiting -->
<g id="edge10" class="edge">
<title>validating&#45;&gt;waiting</title>
<path fill="none" stroke="black" d="M345.81,-1347.45C394.28,-1312.56 442,-1278.21 442,-1278.21 451.44,-1264.81 457.19,-1247.73 460.69,-1232.53"/>
<polygon fill="black" stroke="black" points="464.19,-1232.87 462.76,-1222.37 457.33,-1231.47 464.19,-1232.87"/>
<text text-anchor="middle" x="521" y="-1267.01" font-family="Times,serif" font-size="14.00">validation succeeds</text>
</g>
<!-- checkreconcilable -->
<g id="node9" class="node">
<title>checkreconcilable</title>
<ellipse fill="none" stroke="black" cx="627" cy="-976.48" rx="115.08" ry="115.08"/>
<text text-anchor="middle" x="627" y="-972.78" font-family="Times,serif" font-size="14.00">Checking Reconcilable</text>
</g>
<!-- waiting&#45;&gt;checkreconcilable -->
<g id="edge12" class="edge">
<title>waiting&#45;&gt;checkreconcilable</title>
<path fill="none" stroke="black" d="M460.72,-1165.66C458.75,-1148.7 458.69,-1126.88 467,-1109.52 479.24,-1083.95 499.08,-1061.62 520.69,-1042.95"/>
<polygon fill="black" stroke="black" points="522.98,-1045.61 528.4,-1036.51 518.48,-1040.24 522.98,-1045.61"/>
<text text-anchor="middle" x="540" y="-1113.32" font-family="Times,serif" font-size="14.00">node gets an update</text>
</g>
<!-- updating&#45;&gt;validating -->
<g id="edge17" class="edge">
<title>updating&#45;&gt;validating</title>
<path fill="none" stroke="black" d="M477.85,-1633.25C443.31,-1622.34 396.61,-1608.04 355,-1596.79 321.49,-1587.73 303.31,-1603.57 279,-1578.79 271.98,-1571.63 266.26,-1563.39 261.61,-1554.5"/>
<polygon fill="black" stroke="black" points="264.76,-1552.97 257.32,-1545.42 258.43,-1555.96 264.76,-1552.97"/>
<text text-anchor="middle" x="346.5" y="-1567.59" font-family="Times,serif" font-size="14.00">nothing to be done</text>
</g>
<!-- writefiles -->
<g id="node10" class="node">
<title>writefiles</title>
<ellipse fill="none" stroke="black" cx="318" cy="-976.48" rx="70.69" ry="70.69"/>
<text text-anchor="middle" x="318" y="-972.78" font-family="Times,serif" font-size="14.00">Writing Files</text>
</g>
<!-- updating&#45;&gt;writefiles -->
<g id="edge16" class="edge">
<title>updating&#45;&gt;writefiles</title>
<path fill="none" stroke="black" d="M489.11,-1613.85C457.89,-1585.58 419.34,-1550.22 417,-1545.79 364.5,-1446.63 461.34,-1372.43 379,-1296.21 339.26,-1259.43 172.85,-1317.89 136,-1278.21 63.33,-1199.96 175.05,-1088.17 253.03,-1025.26"/>
<polygon fill="black" stroke="black" points="255.3,-1027.92 260.93,-1018.95 250.93,-1022.45 255.3,-1027.92"/>
<text text-anchor="middle" x="220" y="-1267.01" font-family="Times,serif" font-size="14.00">files can be live applied</text>
</g>
<!-- cordoning -->
<g id="node15" class="node">
<title>cordoning</title>
<ellipse fill="none" stroke="black" cx="485" cy="-1421" rx="59.29" ry="59.29"/>
<text text-anchor="middle" x="485" y="-1417.3" font-family="Times,serif" font-size="14.00">Cordoning</text>
</g>
<!-- updating&#45;&gt;cordoning -->
<g id="edge15" class="edge">
<title>updating&#45;&gt;cordoning</title>
<path fill="none" stroke="black" d="M514.57,-1598.35C512.92,-1591.79 511.35,-1585.15 510,-1578.79 503.84,-1549.86 498.45,-1517.63 494.27,-1489.95"/>
<polygon fill="black" stroke="black" points="497.72,-1489.35 492.78,-1479.97 490.79,-1490.38 497.72,-1489.35"/>
<text text-anchor="middle" x="561.5" y="-1567.59" font-family="Times,serif" font-size="14.00">needs to drain</text>
</g>
<!-- checkreconcilable&#45;&gt;degraded -->
<g id="edge14" class="edge">
<title>checkreconcilable&#45;&gt;degraded</title>
<path fill="none" stroke="black" d="M674.69,-1081.24C696.56,-1134.42 720.02,-1200.96 731,-1263.21 761.39,-1435.53 744.44,-1643.12 732.53,-1746.1"/>
<polygon fill="black" stroke="black" points="729.06,-1745.7 731.36,-1756.04 736.01,-1746.52 729.06,-1745.7"/>
<text text-anchor="middle" x="806.5" y="-1417.3" font-family="Times,serif" font-size="14.00">not reconcilable</text>
</g>
<!-- checkreconcilable&#45;&gt;updating -->
<g id="edge13" class="edge">
<title>checkreconcilable&#45;&gt;updating</title>
<path fill="none" stroke="black" d="M626.75,-1091.72C626.03,-1260.05 623.3,-1557.27 613,-1578.79 606.17,-1593.06 594.97,-1605.52 582.93,-1615.85"/>
<polygon fill="black" stroke="black" points="580.5,-1613.31 574.94,-1622.33 584.91,-1618.75 580.5,-1613.31"/>
<text text-anchor="middle" x="677.5" y="-1267.01" font-family="Times,serif" font-size="14.00">is reconcilable</text>
</g>
<!-- osupdate -->
<g id="node11" class="node">
<title>osupdate</title>
<ellipse fill="none" stroke="black" cx="318" cy="-694.1" rx="116.18" ry="116.18"/>
<text text-anchor="middle" x="318" y="-690.4" font-family="Times,serif" font-size="14.00">Updating OS/Rebasing</text>
</g>
<!-- writefiles&#45;&gt;osupdate -->
<g id="edge19" class="edge">
<title>writefiles&#45;&gt;osupdate</title>
<path fill="none" stroke="black" d="M318,-905.45C318,-879.77 318,-849.86 318,-820.79"/>
<polygon fill="black" stroke="black" points="321.5,-820.55 318,-810.55 314.5,-820.55 321.5,-820.55"/>
<text text-anchor="middle" x="386" y="-832.24" font-family="Times,serif" font-size="14.00">os update required</text>
</g>
<!-- rollbackfiles -->
<g id="node14" class="node">
<title>rollbackfiles</title>
<ellipse fill="none" stroke="black" cx="763" cy="-694.1" rx="94.48" ry="94.48"/>
<text text-anchor="middle" x="763" y="-690.4" font-family="Times,serif" font-size="14.00">Rolling Back Files</text>
</g>
<!-- writefiles&#45;&gt;rollbackfiles -->
<g id="edge18" class="edge">
<title>writefiles&#45;&gt;rollbackfiles</title>
<path fill="none" stroke="black" d="M375.77,-935.46C411.38,-911.92 458.59,-882.7 503,-861.44 564.24,-832.13 589.53,-846.59 647,-810.44 663.58,-800.01 679.65,-786.83 694.28,-773.13"/>
<polygon fill="black" stroke="black" points="696.99,-775.38 701.79,-765.94 692.15,-770.33 696.99,-775.38"/>
<text text-anchor="middle" x="660.5" y="-832.24" font-family="Times,serif" font-size="14.00">file write fails</text>
</g>
<!-- postconfig -->
<g id="node17" class="node">
<title>postconfig</title>
<ellipse fill="none" stroke="black" cx="685" cy="-374.03" rx="152.97" ry="152.97"/>
<text text-anchor="middle" x="685" y="-370.33" font-family="Times,serif" font-size="14.00">Performing PostConfig Actions</text>
</g>
<!-- writefiles&#45;&gt;postconfig -->
<g id="edge20" class="edge">
<title>writefiles&#45;&gt;postconfig</title>
<path fill="none" stroke="black" d="M376.1,-935.25C405.34,-911.87 438.6,-879.86 458,-843.44 514.26,-737.8 450.03,-685.58 502,-577.76 517.95,-544.68 541,-513.05 565.4,-485.03"/>
<polygon fill="black" stroke="black" points="568.31,-487.03 572.32,-477.22 563.07,-482.39 568.31,-487.03"/>
<text text-anchor="middle" x="581" y="-690.4" font-family="Times,serif" font-size="14.00">no os update required</text>
</g>
<!-- osupdate&#45;&gt;degraded -->
<g id="edge28" class="edge">
<title>osupdate&#45;&gt;degraded</title>
<path fill="none" stroke="black" d="M209.9,-737.68C117.71,-781.92 0,-860.85 0,-975.48 0,-1651.74 0,-1651.74 0,-1651.74 0,-1785.78 479.47,-1806.85 658.04,-1810.05"/>
<polygon fill="black" stroke="black" points="658.03,-1813.55 668.09,-1810.21 658.15,-1806.55 658.03,-1813.55"/>
<text text-anchor="middle" x="50" y="-1267.01" font-family="Times,serif" font-size="14.00">update failed]</text>
</g>
<!-- osupdate&#45;&gt;postconfig -->
<g id="edge27" class="edge">
<title>osupdate&#45;&gt;postconfig</title>
<path fill="none" stroke="black" d="M341.06,-579.69C346.6,-567.12 353.47,-555.14 362,-544.76 405.7,-491.57 470.5,-452.95 530.61,-426.12"/>
<polygon fill="black" stroke="black" points="532.08,-429.3 539.83,-422.08 529.27,-422.88 532.08,-429.3"/>
<text text-anchor="middle" x="416.5" y="-548.56" font-family="Times,serif" font-size="14.00">update success</text>
</g>
<!-- osupdateinplace&#45;&gt;firstboot -->
<g id="edge5" class="edge">
<title>osupdateinplace&#45;&gt;firstboot</title>
<path fill="none" stroke="black" d="M907.89,-2153.22C913.72,-2183.13 913.44,-2215.46 897,-2241.35 877.58,-2271.92 841.1,-2289.56 808.86,-2299.6"/>
<polygon fill="black" stroke="black" points="807.63,-2296.31 799.01,-2302.47 809.59,-2303.03 807.63,-2296.31"/>
<text text-anchor="middle" x="999" y="-2230.15" font-family="Times,serif" font-size="14.00">failed, retrying after 1 min</text>
</g>
<!-- reboot -->
<g id="node19" class="node">
<title>reboot</title>
<ellipse fill="none" stroke="black" cx="874" cy="-1811.58" rx="18" ry="18"/>
</g>
<!-- osupdateinplace&#45;&gt;reboot -->
<g id="edge4" class="edge">
<title>osupdateinplace&#45;&gt;reboot</title>
<path fill="none" stroke="black" d="M874,-1967.6C874,-1922.11 874,-1870.96 874,-1840.28"/>
<polygon fill="black" stroke="black" points="877.5,-1839.95 874,-1829.95 870.5,-1839.95 877.5,-1839.95"/>
<text text-anchor="middle" x="942.5" y="-1889.27" font-family="Times,serif" font-size="14.00">successful update}</text>
</g>
<!-- cleanup&#45;&gt;degraded -->
<g id="edge9" class="edge">
<title>cleanup&#45;&gt;degraded</title>
<path fill="none" stroke="black" d="M647.11,-1938.96C662.16,-1914.22 677.26,-1889.4 690.04,-1868.39"/>
<polygon fill="black" stroke="black" points="693.17,-1869.99 695.37,-1859.63 687.19,-1866.35 693.17,-1869.99"/>
<text text-anchor="middle" x="725.5" y="-1889.27" font-family="Times,serif" font-size="14.00">cleanup fails</text>
</g>
<!-- cleanup&#45;&gt;validating -->
<g id="edge8" class="edge">
<title>cleanup&#45;&gt;validating</title>
<path fill="none" stroke="black" d="M455.18,-1977.02C384.96,-1918.37 301.42,-1833.91 260,-1737.68 235.7,-1681.22 229.79,-1613.73 230.84,-1555.67"/>
<polygon fill="black" stroke="black" points="234.35,-1555.4 231.1,-1545.31 227.35,-1555.22 234.35,-1555.4"/>
<text text-anchor="middle" x="322.5" y="-1726.48" font-family="Times,serif" font-size="14.00">cleanup succeeds</text>
</g>
<!-- rollbackfiles&#45;&gt;degraded -->
<g id="edge21" class="edge">
<title>rollbackfiles&#45;&gt;degraded</title>
<path fill="none" stroke="black" d="M817.95,-771.28C893.61,-877.44 1024.03,-1065.5 1055,-1142.52 1076.46,-1195.89 1079,-1212.19 1079,-1269.71 1079,-1651.74 1079,-1651.74 1079,-1651.74 1079,-1764.72 952.42,-1715.03 847,-1755.68 826.09,-1763.74 803.6,-1773.46 783.65,-1782.47"/>
<polygon fill="black" stroke="black" points="782.03,-1779.36 774.37,-1786.68 784.92,-1785.73 782.03,-1779.36"/>
<text text-anchor="middle" x="1125" y="-1267.01" font-family="Times,serif" font-size="14.00">rollback fails</text>
</g>
<!-- rollbackfiles&#45;&gt;updating -->
<g id="edge22" class="edge">
<title>rollbackfiles&#45;&gt;updating</title>
<path fill="none" stroke="black" d="M767.46,-788.49C770.9,-904.68 770,-1108.48 733,-1278.21 702.89,-1416.33 713.81,-1465.7 629,-1578.79 617.31,-1594.38 601.19,-1607.89 585.31,-1618.82"/>
<polygon fill="black" stroke="black" points="582.95,-1616.19 576.54,-1624.62 586.81,-1622.02 582.95,-1616.19"/>
<text text-anchor="middle" x="773.5" y="-1190.17" font-family="Times,serif" font-size="14.00">retry</text>
</g>
<!-- cordoning&#45;&gt;cordoning -->
<g id="edge24" class="edge">
<title>cordoning&#45;&gt;cordoning</title>
<path fill="none" stroke="black" d="M537.28,-1448.92C551.4,-1447.45 562.14,-1438.14 562.14,-1421 562.14,-1408.15 556.1,-1399.7 547.12,-1395.66"/>
<polygon fill="black" stroke="black" points="547.84,-1392.23 537.28,-1393.08 546.07,-1399 547.84,-1392.23"/>
<text text-anchor="middle" x="580.64" y="-1417.3" font-family="Times,serif" font-size="14.00">retry</text>
</g>
<!-- draining -->
<g id="node16" class="node">
<title>draining</title>
<ellipse fill="none" stroke="black" cx="313" cy="-1193.87" rx="51.19" ry="51.19"/>
<text text-anchor="middle" x="313" y="-1190.17" font-family="Times,serif" font-size="14.00">Draining</text>
</g>
<!-- cordoning&#45;&gt;draining -->
<g id="edge23" class="edge">
<title>cordoning&#45;&gt;draining</title>
<path fill="none" stroke="black" d="M465.11,-1365.27C453.37,-1340.48 436.02,-1313.02 412,-1296.21 376.08,-1271.07 343.44,-1311.59 315,-1278.21 309.33,-1271.56 306.23,-1263.41 304.79,-1254.84"/>
<polygon fill="black" stroke="black" points="308.25,-1254.27 303.82,-1244.65 301.28,-1254.94 308.25,-1254.27"/>
<text text-anchor="middle" x="378.5" y="-1267.01" font-family="Times,serif" font-size="14.00">cordon successful</text>
</g>
<!-- draining&#45;&gt;writefiles -->
<g id="edge26" class="edge">
<title>draining&#45;&gt;writefiles</title>
<path fill="none" stroke="black" d="M314.17,-1142.37C314.76,-1117.23 315.48,-1086.24 316.13,-1057.93"/>
<polygon fill="black" stroke="black" points="319.64,-1057.72 316.37,-1047.64 312.64,-1057.55 319.64,-1057.72"/>
<text text-anchor="middle" x="373" y="-1113.32" font-family="Times,serif" font-size="14.00">drain successful</text>
</g>
<!-- draining&#45;&gt;draining -->
<g id="edge25" class="edge">
<title>draining&#45;&gt;draining</title>
<path fill="none" stroke="black" d="M362.55,-1207.8C373.96,-1206.6 382.35,-1201.96 382.35,-1193.87 382.35,-1188.43 378.56,-1184.55 372.62,-1182.23"/>
<polygon fill="black" stroke="black" points="373.08,-1178.74 362.55,-1179.93 371.53,-1185.57 373.08,-1178.74"/>
<text text-anchor="middle" x="400.85" y="-1190.17" font-family="Times,serif" font-size="14.00">retry</text>
</g>
<!-- postconfig&#45;&gt;degraded -->
<g id="edge31" class="edge">
<title>postconfig&#45;&gt;degraded</title>
<path fill="none" stroke="black" d="M797.17,-478.18C823.54,-507.89 848.9,-542.01 866,-577.76 888.41,-624.63 885,-641.15 885,-693.1 885,-1118.02 885,-1118.02 885,-1118.02 885,-1308.29 918.55,-1362.36 868,-1545.79 846.2,-1624.88 797.1,-1706.4 762.31,-1757.72"/>
<polygon fill="black" stroke="black" points="759.4,-1755.77 756.64,-1766 765.17,-1759.73 759.4,-1755.77"/>
<text text-anchor="middle" x="972" y="-1190.17" font-family="Times,serif" font-size="14.00">postconfig action failed</text>
</g>
<!-- rebooting -->
<g id="node18" class="node">
<title>rebooting</title>
<ellipse fill="none" stroke="black" cx="1036" cy="-112.44" rx="57.69" ry="57.69"/>
<text text-anchor="middle" x="1036" y="-108.74" font-family="Times,serif" font-size="14.00">Rebooting</text>
</g>
<!-- postconfig&#45;&gt;rebooting -->
<g id="edge30" class="edge">
<title>postconfig&#45;&gt;rebooting</title>
<path fill="none" stroke="black" d="M807.76,-282.24C867.07,-238.38 935.23,-187.97 981.51,-153.74"/>
<polygon fill="black" stroke="black" points="983.65,-156.52 989.6,-147.76 979.48,-150.89 983.65,-156.52"/>
<text text-anchor="middle" x="988.5" y="-192.09" font-family="Times,serif" font-size="14.00">reboot required</text>
</g>
<!-- rebooting&#45;&gt;EXIT -->
<g id="edge33" class="edge">
<title>rebooting&#45;&gt;EXIT</title>
<path fill="none" stroke="black" d="M1036,-54.58C1036,-39.12 1036,-23.94 1036,-14.06"/>
<polygon fill="black" stroke="black" points="1039.5,-13.95 1036,-3.95 1032.5,-13.95 1039.5,-13.95"/>
<text text-anchor="middle" x="1077" y="-25.4" font-family="Times,serif" font-size="14.00">Terminated</text>
</g>
<!-- rebooting&#45;&gt;degraded -->
<g id="edge32" class="edge">
<title>rebooting&#45;&gt;degraded</title>
<path fill="none" stroke="black" d="M1076.99,-153.38C1121.4,-201.12 1186,-285.58 1186,-373.03 1186,-1651.74 1186,-1651.74 1186,-1651.74 1186,-1809.33 998.91,-1713.77 847,-1755.68 825.2,-1761.69 802.33,-1771 782.29,-1780.24"/>
<polygon fill="black" stroke="black" points="780.56,-1777.19 773.01,-1784.62 783.54,-1783.52 780.56,-1777.19"/>
<text text-anchor="middle" x="1263.5" y="-1113.32" font-family="Times,serif" font-size="14.00">reboot execution fails</text>
</g>
</g>
</svg>
